<svg xmlns="http://www.w3.org/2000/svg" width="107" height="32" viewBox="0 0 107 32" fill="none">
  <g clip-path="url(#clip0_295_215)">
    <mask id="mask0_295_215" style="mask-type:alpha" maskUnits="userSpaceOnUse" x="0" y="0" width="107" height="32">
      <path d="M4.57125 31.4144C2.5319 31.4144 0.871948 29.762 0.871948 27.7392V4.02395C0.871948 2.00038 2.5319 0.354187 4.57125 0.354187H102.72C104.758 0.354187 106.477 2.00038 106.477 4.02395V27.7392C106.477 29.762 104.758 31.4144 102.72 31.4144H4.57125Z" fill="white"/>
    </mask>
    <g mask="url(#mask0_295_215)">
      <path d="M4.57137 31.1051C2.70183 31.1051 1.18267 29.59 1.18267 27.7405V4.02523C1.18267 2.17557 2.70118 0.666071 4.57137 0.666071H102.72C104.595 0.666071 106.166 2.18181 106.166 4.02523V27.7405C106.166 29.5838 104.595 31.1051 102.72 31.1051H4.57137Z" fill="white" stroke="#306FD5" stroke-width="0.621205"/>
      <path fill-rule="evenodd" clip-rule="evenodd" d="M42.4617 24.8181H40.6747L39.6959 21.7828H36.2935L35.3611 24.8181H33.6213L36.9922 14.4844H39.0743L42.4617 24.8181ZM39.4008 20.5093L38.5156 17.8109C38.422 17.5353 38.2465 16.8861 37.9876 15.8642H37.9561C37.8531 16.3037 37.687 16.9529 37.4588 17.8109L36.5894 20.5093H39.4008ZM51.1305 21.0008C51.1305 22.2681 50.7835 23.2698 50.0895 24.0051C49.4679 24.6597 48.696 24.9866 47.7746 24.9866C46.78 24.9866 46.0655 24.6341 45.6304 23.929H45.5989V27.8543H43.9213V19.8198C43.9213 19.0231 43.9001 18.2054 43.8592 17.3668H45.3345L45.4282 18.5478H45.4596C46.0191 17.658 46.8681 17.2138 48.0075 17.2138C48.8982 17.2138 49.6418 17.5609 50.2367 18.2559C50.8331 18.9516 51.1305 19.8663 51.1305 21.0008ZM49.4215 21.0614C49.4215 20.3361 49.2562 19.7382 48.9242 19.2677C48.5614 18.7769 48.0744 18.5315 47.4638 18.5315C47.0499 18.5315 46.6738 18.6682 46.3378 18.9376C46.001 19.2094 45.7807 19.5643 45.6776 20.0038C45.6257 20.2088 45.5997 20.3765 45.5997 20.5085V21.7509C45.5997 22.2929 45.7681 22.7503 46.1049 23.1238C46.4416 23.4973 46.8791 23.6837 47.4173 23.6837C48.0492 23.6837 48.541 23.4429 48.8927 22.9631C49.2452 22.4824 49.4215 21.8488 49.4215 21.0614ZM59.8151 21.0008C59.8151 22.2681 59.4681 23.2698 58.7733 24.0051C58.1525 24.6597 57.3806 24.9866 56.4591 24.9866C55.4646 24.9866 54.7501 24.6341 54.3157 23.929H54.2843V27.8543H52.6067V19.8198C52.6067 19.0231 52.5854 18.2054 52.5445 17.3668H54.0199L54.1135 18.5478H54.145C54.7037 17.658 55.5527 17.2138 56.6928 17.2138C57.5828 17.2138 58.3264 17.5609 58.9228 18.2559C59.5169 18.9516 59.8151 19.8663 59.8151 21.0008ZM58.106 21.0614C58.106 20.3361 57.94 19.7382 57.608 19.2677C57.2452 18.7769 56.7597 18.5315 56.1483 18.5315C55.7337 18.5315 55.3583 18.6682 55.0216 18.9376C54.6848 19.2094 54.4652 19.5643 54.3622 20.0038C54.311 20.2088 54.2843 20.3765 54.2843 20.5085V21.7509C54.2843 22.2929 54.4526 22.7503 54.7878 23.1238C55.1246 23.4965 55.5621 23.6837 56.1019 23.6837C56.7338 23.6837 57.2255 23.4429 57.5773 22.9631C57.9298 22.4824 58.106 21.8488 58.106 21.0614ZM69.5249 21.9202C69.5249 22.7992 69.2157 23.5144 68.5949 24.0665C67.9127 24.6698 66.9629 24.9711 65.7425 24.9711C64.6157 24.9711 63.7124 24.7568 63.0286 24.3274L63.4173 22.9475C64.1538 23.387 64.9619 23.6076 65.8424 23.6076C66.4743 23.6076 66.9661 23.4662 67.3194 23.1851C67.6711 22.904 67.8466 22.5267 67.8466 22.0561C67.8466 21.6368 67.7018 21.2835 67.4114 20.9969C67.1227 20.7104 66.6403 20.4441 65.9668 20.1979C64.1334 19.5231 63.2175 18.5346 63.2175 17.2348C63.2175 16.3853 63.5385 15.6887 64.1814 15.1467C64.8219 14.604 65.6764 14.333 66.745 14.333C67.6978 14.333 68.4894 14.4968 69.1213 14.8237L68.7019 16.1733C68.1117 15.8565 67.4445 15.6981 66.6978 15.6981C66.1076 15.6981 65.6465 15.8417 65.316 16.1275C65.0367 16.3829 64.8966 16.6943 64.8966 17.0632C64.8966 17.4716 65.0564 17.8094 65.3774 18.075C65.6567 18.3203 66.1643 18.5859 66.9008 18.8724C67.8017 19.2304 68.4635 19.6489 68.8892 20.1288C69.3133 20.6071 69.5249 21.2058 69.5249 21.9202ZM75.0715 18.6092H73.2224V22.2269C73.2224 23.1471 73.5482 23.6068 74.2012 23.6068C74.501 23.6068 74.7497 23.5812 74.9464 23.5299L74.9928 24.7871C74.6623 24.909 74.2272 24.9703 73.6882 24.9703C73.0257 24.9703 72.5079 24.7708 72.1342 24.3724C71.762 23.9733 71.5747 23.3039 71.5747 22.3636V18.6076H70.4731V17.3652H71.5747V16.0009L73.2224 15.5102V17.3652H75.0715V18.6092ZM83.4146 21.0311C83.4146 22.1765 83.0825 23.1168 82.42 23.8522C81.7252 24.6092 80.803 24.9866 79.6534 24.9866C78.5455 24.9866 77.6634 24.624 77.0056 23.8987C76.3478 23.1735 76.0189 22.258 76.0189 21.1546C76.0189 19.9999 76.3572 19.0541 77.0363 18.3188C77.7138 17.5826 78.6281 17.2146 79.7777 17.2146C80.8856 17.2146 81.7771 17.5772 82.4499 18.3032C83.0935 19.0075 83.4146 19.9168 83.4146 21.0311ZM81.674 21.0847C81.674 20.3975 81.5253 19.8081 81.224 19.3166C80.8722 18.7218 80.3694 18.4252 79.7179 18.4252C79.0436 18.4252 78.5313 18.7226 78.1796 19.3166C77.8782 19.8089 77.7295 20.4076 77.7295 21.1157C77.7295 21.803 77.8782 22.3923 78.1796 22.8831C78.5424 23.4779 79.0491 23.7745 79.703 23.7745C80.3435 23.7745 80.8463 23.4717 81.209 22.8675C81.5182 22.3667 81.674 21.7711 81.674 21.0847ZM88.8675 18.8227C88.7015 18.7924 88.5244 18.7769 88.3387 18.7769C87.7486 18.7769 87.2922 18.9967 86.9712 19.4369C86.6918 19.8252 86.5518 20.3159 86.5518 20.9084V24.8181H84.875L84.8907 19.7134C84.8907 18.8546 84.8695 18.0726 84.8278 17.3676H86.289L86.3503 18.7932H86.3968C86.5738 18.3032 86.8532 17.9088 87.2356 17.6129C87.6093 17.3466 88.013 17.2138 88.4481 17.2138C88.6031 17.2138 88.7432 17.2247 88.8675 17.2441V18.8227ZM96.3702 20.7399C96.3702 21.0365 96.3505 21.2866 96.3088 21.4908H91.2761C91.2958 22.2269 91.5389 22.7899 92.0063 23.1781C92.4304 23.5252 92.9789 23.6992 93.6524 23.6992C94.3976 23.6992 95.0774 23.5819 95.6888 23.3466L95.9516 24.4959C95.2371 24.8034 94.3936 24.9563 93.4203 24.9563C92.2494 24.9563 91.3304 24.6162 90.6615 23.9368C89.9943 23.2573 89.6599 22.345 89.6599 21.2004C89.6599 20.0768 89.9707 19.1411 90.5931 18.3949C91.2446 17.5982 92.1251 17.1998 93.233 17.1998C94.3212 17.1998 95.1451 17.5982 95.7045 18.3949C96.1475 19.0277 96.3702 19.8104 96.3702 20.7399ZM94.7705 20.3105C94.7816 19.8198 94.6722 19.3958 94.4448 19.0378C94.1544 18.5774 93.7083 18.3475 93.1079 18.3475C92.5595 18.3475 92.1133 18.5719 91.7726 19.0223C91.4933 19.3803 91.3272 19.8097 91.2761 20.3097H94.7705V20.3105ZM38.8461 8.12714C38.8461 9.04108 38.5683 9.72907 38.0136 10.1911C37.4998 10.6174 36.7696 10.8309 35.8238 10.8309C35.3548 10.8309 34.9535 10.8107 34.6175 10.7704V5.77665C35.0558 5.70677 35.5279 5.67105 36.0378 5.67105C36.9387 5.67105 37.6178 5.8644 38.0757 6.2511C38.5888 6.68827 38.8461 7.31336 38.8461 8.12714ZM37.9766 8.14965C37.9766 7.55718 37.8177 7.10293 37.4998 6.78611C37.1819 6.47007 36.7176 6.31167 36.1062 6.31167C35.8466 6.31167 35.6255 6.32875 35.4421 6.36447V10.1608C35.5436 10.1763 35.7293 10.1833 35.9992 10.1833C36.6303 10.1833 37.1174 10.0102 37.4604 9.66384C37.8035 9.31752 37.9766 8.81279 37.9766 8.14965ZM43.4563 8.92538C43.4563 9.48835 43.2934 9.94959 42.9677 10.3114C42.6262 10.6834 42.1737 10.869 41.6087 10.869C41.0642 10.869 40.6307 10.6912 40.3073 10.334C39.9847 9.97755 39.8234 9.52795 39.8234 8.98595C39.8234 8.4191 39.9894 7.95398 40.323 7.5929C40.6566 7.23182 41.1052 7.0509 41.6701 7.0509C42.2146 7.0509 42.6521 7.22872 42.9834 7.58514C43.2981 7.93146 43.4563 8.37872 43.4563 8.92538ZM42.601 8.95179C42.601 8.61401 42.527 8.32437 42.3799 8.08288C42.2068 7.79091 41.9605 7.64493 41.6402 7.64493C41.309 7.64493 41.0572 7.79091 40.884 8.08288C40.7361 8.32437 40.6629 8.61866 40.6629 8.96654C40.6629 9.30432 40.7369 9.59396 40.884 9.83545C41.0627 10.1274 41.3113 10.2734 41.6324 10.2734C41.9471 10.2734 42.1942 10.1251 42.372 9.82768C42.5246 9.58153 42.601 9.28957 42.601 8.95179ZM49.6379 7.12544L48.4772 10.7859H47.7219L47.2411 9.19638C47.1191 8.79959 47.02 8.40512 46.9429 8.01377H46.9279C46.8563 8.416 46.7572 8.80968 46.6297 9.19638L46.119 10.7859H45.355L44.2636 7.12544H45.1111L45.5305 8.86559C45.632 9.27714 45.7154 9.66928 45.7822 10.0404H45.7972C45.8586 9.7345 45.9601 9.3447 46.1033 8.87336L46.6297 7.12622H47.3017L47.8061 8.83609C47.928 9.25307 48.0272 9.65452 48.1035 10.0412H48.1263C48.1822 9.66462 48.2664 9.26316 48.3781 8.83609L48.8282 7.12622H49.6379V7.12544ZM53.9129 10.7859H53.0882V8.68933C53.0882 8.04327 52.8396 7.72025 52.3407 7.72025C52.096 7.72025 51.8985 7.80877 51.7451 7.98659C51.5932 8.16441 51.5161 8.37406 51.5161 8.61401V10.7851H50.6915V8.1714C50.6915 7.84992 50.6812 7.50127 50.6616 7.12389H51.3863L51.4248 7.69618H51.4476C51.5436 7.51836 51.6868 7.3716 51.8749 7.25434C52.0984 7.11768 52.3486 7.04857 52.6224 7.04857C52.9686 7.04857 53.2566 7.15883 53.4856 7.38014C53.7704 7.65114 53.9129 8.0557 53.9129 8.59304V10.7859ZM56.1869 10.7859H55.363V5.44586H56.1869V10.7859ZM61.0418 8.92538C61.0418 9.48835 60.8789 9.94959 60.5532 10.3114C60.2117 10.6834 59.7584 10.869 59.1943 10.869C58.649 10.869 58.2154 10.6912 57.8928 10.334C57.5702 9.97755 57.4089 9.52795 57.4089 8.98595C57.4089 8.4191 57.5749 7.95398 57.9085 7.5929C58.2422 7.23182 58.6907 7.0509 59.2549 7.0509C59.8001 7.0509 60.2369 7.22872 60.5689 7.58514C60.8837 7.93146 61.0418 8.37872 61.0418 8.92538ZM60.1857 8.95179C60.1857 8.61401 60.1117 8.32437 59.9646 8.08288C59.7923 7.79091 59.5452 7.64493 59.2257 7.64493C58.8937 7.64493 58.6419 7.79091 58.4696 8.08288C58.3216 8.32437 58.2485 8.61866 58.2485 8.96654C58.2485 9.30432 58.3224 9.59396 58.4696 9.83545C58.6482 10.1274 58.8968 10.2734 59.2179 10.2734C59.5326 10.2734 59.7789 10.1251 59.9567 9.82768C60.1102 9.58153 60.1857 9.28957 60.1857 8.95179ZM65.0328 10.7859H64.2923L64.2309 10.3642H64.2081C63.9548 10.7005 63.5936 10.869 63.1246 10.869C62.7745 10.869 62.4912 10.7579 62.278 10.5374C62.0844 10.3371 61.9876 10.0878 61.9876 9.79196C61.9876 9.3447 62.1765 9.00381 62.5565 8.76775C62.9358 8.5317 63.4693 8.416 64.1562 8.42143V8.3531C64.1562 7.87089 63.8997 7.63017 63.3859 7.63017C63.02 7.63017 62.6974 7.72102 62.4188 7.90117L62.2512 7.36694C62.5959 7.1565 63.0215 7.0509 63.5236 7.0509C64.493 7.0509 64.9793 7.55563 64.9793 8.56509V9.9131C64.9793 10.2788 64.9974 10.57 65.0328 10.7859ZM64.1767 9.52795V8.96343C63.267 8.9479 62.8122 9.19406 62.8122 9.70111C62.8122 9.89213 62.8642 10.035 62.9704 10.1305C63.0766 10.226 63.212 10.2734 63.3733 10.2734C63.5543 10.2734 63.7234 10.2167 63.8777 10.1041C64.0327 9.99075 64.1279 9.8471 64.1633 9.67083C64.1719 9.63123 64.1767 9.58308 64.1767 9.52795ZM69.7185 10.7859H68.9867L68.9482 10.1981H68.9254C68.6917 10.6453 68.2935 10.869 67.734 10.869C67.2871 10.869 66.9149 10.6958 66.6199 10.3495C66.3248 10.0032 66.1776 9.55358 66.1776 9.00148C66.1776 8.40901 66.3374 7.92913 66.6584 7.56262C66.9692 7.22095 67.3501 7.05012 67.8033 7.05012C68.3014 7.05012 68.65 7.21552 68.8482 7.54709H68.864V5.44586H69.6894V9.79973C69.6894 10.1561 69.6988 10.4846 69.7185 10.7859ZM68.864 9.2422V8.63186C68.864 8.52626 68.8561 8.44084 68.8412 8.37562C68.7947 8.17994 68.6948 8.01532 68.5429 7.88254C68.3895 7.74975 68.2046 7.68298 67.9913 7.68298C67.6837 7.68298 67.4429 7.80333 67.2659 8.04483C67.0904 8.28632 67.0015 8.59459 67.0015 8.9712C67.0015 9.33305 67.0857 9.62657 67.2548 9.85253C67.4335 10.0932 67.6742 10.2136 67.9756 10.2136C68.2463 10.2136 68.4627 10.1134 68.6271 9.91232C68.7861 9.72674 68.864 9.5031 68.864 9.2422ZM76.7711 8.92538C76.7711 9.48835 76.6082 9.94959 76.2825 10.3114C75.941 10.6834 75.4893 10.869 74.9236 10.869C74.3799 10.869 73.9463 10.6912 73.6221 10.334C73.2995 9.97755 73.1382 9.52795 73.1382 8.98595C73.1382 8.4191 73.3042 7.95398 73.6379 7.5929C73.9715 7.23182 74.42 7.0509 74.9857 7.0509C75.5295 7.0509 75.9677 7.22872 76.2982 7.58514C76.613 7.93146 76.7711 8.37872 76.7711 8.92538ZM75.9166 8.95179C75.9166 8.61401 75.8426 8.32437 75.6955 8.08288C75.5216 7.79091 75.2761 7.64493 74.9551 7.64493C74.6246 7.64493 74.3728 7.79091 74.1989 8.08288C74.051 8.32437 73.9778 8.61866 73.9778 8.96654C73.9778 9.30432 74.0517 9.59396 74.1989 9.83545C74.3775 10.1274 74.6261 10.2734 74.9472 10.2734C75.2619 10.2734 75.5098 10.1251 75.6876 9.82768C75.8395 9.58153 75.9166 9.28957 75.9166 8.95179ZM81.2051 10.7859H80.3812V8.68933C80.3812 8.04327 80.1326 7.72025 79.6329 7.72025C79.3882 7.72025 79.1907 7.80877 79.0381 7.98659C78.8854 8.16441 78.8091 8.37406 78.8091 8.61401V10.7851H77.9837V8.1714C77.9837 7.84992 77.9742 7.50127 77.9546 7.12389H78.6785L78.717 7.69618H78.7398C78.8366 7.51836 78.9798 7.3716 79.1671 7.25434C79.3914 7.11768 79.6408 7.04857 79.9154 7.04857C80.2608 7.04857 80.5488 7.15883 80.7778 7.38014C81.0634 7.65114 81.2051 8.0557 81.2051 8.59304V10.7859ZM86.7548 7.735H85.8468V9.5132C85.8468 9.96513 86.0081 10.1911 86.3275 10.1911C86.4755 10.1911 86.5982 10.1787 86.695 10.153L86.7162 10.7704C86.5534 10.8309 86.3393 10.8612 86.0757 10.8612C85.75 10.8612 85.4966 10.7634 85.3133 10.5677C85.1291 10.372 85.0379 10.0428 85.0379 9.58075V7.735H84.4957V7.12544H85.0379V6.45454L85.846 6.21383V7.12467H86.754V7.735H86.7548ZM91.1203 10.7859H90.2949V8.70486C90.2949 8.04871 90.0462 7.72025 89.5481 7.72025C89.1657 7.72025 88.9045 7.91049 88.7613 8.29098C88.7369 8.37096 88.7227 8.4688 88.7227 8.58372V10.7851H87.8989V5.44586H88.7227V7.65191H88.7385C88.9981 7.25046 89.3703 7.05012 89.8527 7.05012C90.1942 7.05012 90.4766 7.16039 90.7009 7.38169C90.9802 7.65735 91.1203 8.06735 91.1203 8.60935V10.7859ZM95.6235 8.78251C95.6235 8.92849 95.6125 9.05118 95.5928 9.15135H93.1197C93.1307 9.5132 93.2487 9.78886 93.4777 9.97988C93.687 10.1507 93.9569 10.2361 94.2874 10.2361C94.6533 10.2361 94.9869 10.1787 95.2875 10.063L95.4165 10.6283C95.0648 10.7789 94.6509 10.8542 94.1717 10.8542C93.5973 10.8542 93.1449 10.6873 92.8175 10.3534C92.4886 10.0195 92.3258 9.57144 92.3258 9.00925C92.3258 8.45715 92.4776 7.99746 92.7837 7.63095C93.1032 7.23959 93.5352 7.04391 94.0805 7.04391C94.6139 7.04391 95.0192 7.23959 95.293 7.63095C95.5141 7.94155 95.6235 8.32592 95.6235 8.78251ZM94.8366 8.57207C94.8429 8.33058 94.7886 8.12248 94.6769 7.94699C94.5337 7.72102 94.3157 7.60765 94.0207 7.60765C93.7516 7.60765 93.532 7.71792 93.3644 7.93922C93.2275 8.11549 93.1465 8.32592 93.1197 8.57207H94.8366Z" fill="#0F2852"/>
      <path fill-rule="evenodd" clip-rule="evenodd" d="M23.957 15.7172C23.9829 18.7168 26.6157 19.7084 26.648 19.7192C26.6322 19.7891 26.2357 21.1503 25.2482 22.5325C24.4236 23.7492 23.5596 24.9388 22.1873 24.9605C20.8544 24.9908 20.4059 24.1864 18.8771 24.1864C17.3341 24.1864 16.8565 24.9388 15.5779 24.9908C14.2709 25.0382 13.2724 23.6918 12.4179 22.4859C10.7097 20.0236 9.37989 15.5471 11.1629 12.501C12.0268 11.007 13.6021 10.0449 15.2859 10.0193C16.5945 9.99291 17.8086 10.8913 18.6127 10.8913C19.4011 10.8913 20.9024 9.81665 22.4501 9.97738C23.0977 9.99602 24.9405 10.2297 26.1294 11.9404C26.0334 11.997 23.9341 13.2146 23.957 15.7172ZM21.4391 8.35762C20.7215 9.19313 19.5735 9.83218 18.4553 9.74987C18.309 8.62241 18.8755 7.42351 19.5097 6.69205C20.2265 5.86199 21.4713 5.22604 22.4667 5.18256C22.5973 6.35428 22.1268 7.50892 21.4391 8.35762Z" fill="#0F2852"/>
    </g>
  </g>
  <defs>
    <clipPath id="clip0_295_215">
      <rect width="105.605" height="31.0602" fill="white" transform="translate(0.871826 0.356079)"/>
    </clipPath>
  </defs>
</svg>