<svg xmlns="http://www.w3.org/2000/svg" width="107" height="32" viewBox="0 0 107 32" fill="none">
  <g clip-path="url(#clip0_295_207)">
    <mask id="mask0_295_207" style="mask-type:alpha" maskUnits="userSpaceOnUse" x="0" y="0" width="107" height="32">
      <path d="M4.22286 31.4144C2.18351 31.4144 0.52356 29.762 0.52356 27.7392V4.02395C0.52356 2.00038 2.18351 0.354187 4.22286 0.354187H102.371C104.41 0.354187 106.128 2.00038 106.128 4.02395V27.7392C106.128 29.762 104.41 31.4144 102.371 31.4144H4.22286Z" fill="white"/>
    </mask>
    <g mask="url(#mask0_295_207)">
      <path d="M4.22298 31.1042C2.35344 31.1042 0.834284 29.5892 0.834284 27.7396V4.02438C0.834284 2.17472 2.35279 0.665217 4.22298 0.665217H102.371C104.247 0.665217 105.818 2.18096 105.818 4.02438V27.7396C105.818 29.5829 104.246 31.1042 102.371 31.1042H4.22298Z" fill="white" stroke="#306FD5" stroke-width="0.621205"/>
      <path fill-rule="evenodd" clip-rule="evenodd" d="M94.6306 26.3037H93.1202L94.5949 23.0329L92.0095 17.1518H93.5696L95.2927 21.3587H95.3392L96.9995 17.1518H98.61L94.6306 26.3037ZM90.5115 22.5959H90.4618C90.0647 23.2253 89.3567 23.589 88.6137 23.5451C88.0094 23.59 87.4126 23.3884 86.9593 22.9861C86.5061 22.5839 86.2349 22.0153 86.2076 21.4099C86.2076 19.9872 87.6187 19.2258 89.0018 19.2258C89.5284 19.2245 90.0472 19.3529 90.5122 19.5999V19.5005C90.4342 18.7364 89.754 18.1786 88.9894 18.2517C88.446 18.2049 87.9265 18.4843 87.666 18.9634L86.3807 18.4263C86.8694 17.461 87.8844 16.8777 88.9646 16.9415C90.6248 16.9415 91.914 17.9024 91.914 19.6247V23.3449H90.5169V22.5959H90.5115ZM89.1881 20.3993C88.4764 20.3993 87.6528 20.6865 87.6528 21.4355C87.7474 21.9716 88.2502 22.336 88.7891 22.259C89.6661 22.2493 90.4014 21.5939 90.5115 20.7238C90.1074 20.499 89.6503 20.3869 89.1881 20.3993ZM83.9575 13.6583H85.4043V23.3612H83.9559V13.6591L83.9575 13.6583ZM79.9757 19.6853H77.953V23.3612H76.5055V13.6591H79.9757C81.0922 13.597 82.1515 14.1573 82.7284 15.1151C83.3053 16.073 83.3053 17.2713 82.7284 18.2292C82.1515 19.187 81.0922 19.7473 79.9757 19.6853ZM80.013 15.0088H77.953V18.3347H80.013C80.6157 18.3477 81.1782 18.0337 81.4834 17.5138C81.7885 16.9939 81.7885 16.3496 81.4834 15.8298C81.1782 15.3099 80.6157 14.9958 80.013 15.0088ZM70.5181 22.2606C71.1829 22.264 71.8004 21.9172 72.1434 21.3478L73.2689 22.0984C72.6565 23.0178 71.6228 23.5676 70.5181 23.5614C69.641 23.5741 68.7966 23.2295 68.1787 22.607C67.5608 21.9844 67.2226 21.1373 67.2419 20.2604C67.1969 19.4044 67.5042 18.5674 68.0923 17.9438C68.6803 17.3203 69.498 16.9645 70.3551 16.9593C71.6451 16.9955 72.7746 17.8349 73.1811 19.0597L73.3309 19.4346L68.9169 21.2609C69.1953 21.8907 69.8299 22.2869 70.5181 22.2606ZM71.6304 18.9347C71.3992 18.4768 70.9165 18.2017 70.4048 18.2361C69.9189 18.2581 69.4623 18.4745 69.1378 18.8367C68.8132 19.1989 68.648 19.6765 68.6794 20.1618L71.6304 18.9347ZM65.0903 13.6567H66.5433V23.3612H65.0927V13.6591L65.0903 13.6567ZM60.9549 26.5249C59.6733 26.5315 58.5157 25.7599 58.0287 24.5744L59.2916 24.0489C59.5561 24.7419 60.2133 25.2063 60.9549 25.224C62.0415 25.224 62.7184 24.5487 62.7184 23.2836V22.8086H62.6625C62.2217 23.302 61.5861 23.5765 60.9246 23.5591C59.1572 23.4824 57.7637 22.0272 57.7637 20.2581C57.7637 18.4889 59.1572 17.0337 60.9246 16.957C61.583 16.9412 62.2163 17.2099 62.6625 17.6944H62.7129V17.1565H64.0883V23.0841C64.0906 25.5244 62.6524 26.5249 60.9549 26.5249ZM61.055 18.2594C60.0165 18.3487 59.219 19.2177 59.219 20.26C59.219 21.3023 60.0165 22.1713 61.055 22.2606C62.0583 22.1269 62.8074 21.2708 62.8066 20.2586C62.8058 19.2465 62.0554 18.3915 61.0519 18.2594H61.055ZM62.5422 10.2439L60.2758 6.60911L60.2952 7.2642V10.2439H59.5415V5.43166H60.3906L62.5523 8.89105L62.5336 8.23519V5.43166H63.2834V10.2439H62.5383H62.5422ZM56.3856 10.3479C55.7216 10.3633 55.0818 10.0985 54.6229 9.61833C53.6791 8.61893 53.6791 7.05665 54.6229 6.05726C55.0891 5.58825 55.7231 5.32452 56.3844 5.32452C57.0457 5.32452 57.6797 5.58825 58.146 6.05726C59.0918 7.05468 59.0918 8.6178 58.146 9.61522C57.6872 10.0964 57.0472 10.3623 56.3825 10.3479H56.3856ZM55.1763 6.55556C54.5184 7.28259 54.5184 8.38989 55.1763 9.11692C55.8454 9.7834 56.9274 9.7834 57.5964 9.11692C58.2536 8.38903 58.252 7.28145 57.5925 6.55556C56.9269 5.88917 55.8451 5.88917 55.1763 6.55556ZM57.1587 20.2604C57.1637 21.6017 56.3596 22.8137 55.1218 23.3305C53.8841 23.8473 52.4569 23.5668 51.5066 22.6202C50.5564 21.6735 50.2707 20.2474 50.7828 19.0077C51.2949 17.768 52.5039 16.9594 53.8452 16.9593C54.7257 16.9456 55.5742 17.2887 56.1978 17.9105C56.8213 18.5323 57.1668 19.3799 57.1556 20.2604H57.1587ZM53.8452 18.2594C53.0231 18.2007 52.2488 18.651 51.8931 19.3944C51.5375 20.1379 51.6728 21.0233 52.2344 21.6266C52.796 22.2298 53.6695 22.4281 54.4365 22.1264C55.2035 21.8248 55.7078 21.0846 55.708 20.2604C55.7348 19.7453 55.5513 19.2413 55.1995 18.8641C54.8477 18.4868 54.3578 18.2686 53.8421 18.2594H53.8452ZM50.8088 10.1663V10.2439H50.0552V6.15894H48.7543V5.43166H52.1066V6.15894H50.8057V10.1663H50.8088ZM47.479 10.2439H47.4014V5.43166H48.1543V10.2439H47.479ZM49.9271 20.2565C49.9324 21.5983 49.1283 22.8108 47.8901 23.3279C46.652 23.845 45.2243 23.5646 44.2737 22.6176C43.3232 21.6707 43.0374 20.244 43.5499 19.0039C44.0623 17.7639 45.2719 16.9552 46.6136 16.9555C47.4953 16.9409 48.3453 17.2841 48.9696 17.9069C49.594 18.5296 49.9394 19.3787 49.9271 20.2604V20.2565ZM46.6136 18.2555C45.7915 18.1969 45.0172 18.6471 44.6615 19.3906C44.3059 20.1341 44.4413 21.0194 45.0028 21.6227C45.5644 22.2259 46.4379 22.4242 47.2049 22.1225C47.9719 21.8209 48.4762 21.0807 48.4764 20.2565C48.5021 19.7426 48.3186 19.2401 47.9676 18.8638C47.6166 18.4875 47.1281 18.2695 46.6136 18.2594V18.2555ZM43.9405 10.1663V10.2439H43.186V6.15894H41.8852V5.43166H45.2413V6.15894H43.9405V10.1663ZM38.0144 14.7085C35.9568 14.7085 34.2888 16.3765 34.2888 18.4341C34.2888 20.4917 35.9568 22.1597 38.0144 22.1597C38.9832 22.1989 39.9235 21.8268 40.603 21.1351C41.0482 20.6498 41.3167 20.0285 41.3652 19.3717H38.0144V17.9746H42.7281C42.7823 18.2629 42.8083 18.5559 42.8057 18.8493C42.8453 20.058 42.4098 21.2341 41.5926 22.1255C40.6619 23.0954 39.3598 23.6192 38.0168 23.5638C36.17 23.5865 34.4538 22.6143 33.5238 21.0187C32.5938 19.423 32.5938 17.4505 33.5238 15.8549C34.4538 14.2593 36.17 13.2871 38.0168 13.3098C39.3303 13.2898 40.5967 13.7992 41.5305 14.7232L40.5416 15.7082C39.864 15.0548 38.9557 14.6955 38.0144 14.7085ZM38.543 5.43166H41.4148V6.15894H39.2998V7.47842H41.2122V8.1925H39.2998V9.51199H41.421V10.2439H38.5492V5.43166H38.543ZM37.2398 9.63463C36.7788 10.1116 36.1369 10.3704 35.474 10.3464C34.0877 10.3464 32.9639 9.22255 32.9639 7.83624C32.9639 6.44993 34.0877 5.32611 35.474 5.32611C35.8132 5.32491 36.1489 5.39333 36.4605 5.52713C36.7523 5.64612 37.0118 5.83227 37.2181 6.07045L37.2639 6.12556L37.2134 6.17523L36.7438 6.64482L36.6895 6.5804C36.3884 6.22545 35.9389 6.0314 35.474 6.0557C34.6695 6.05561 33.9644 6.59363 33.752 7.36958C33.5396 8.14554 33.8724 8.96769 34.5648 9.37733C35.2572 9.78697 36.1381 9.68288 36.7159 9.12313C36.9222 8.90044 37.0475 8.61468 37.0714 8.31203H35.3925V7.59718H37.7917L37.8033 7.6616C37.8252 7.78197 37.8364 7.90405 37.8367 8.0264C37.8652 8.62185 37.6487 9.20301 37.2375 9.63463H37.2398Z" fill="#0F2852"/>
      <path fill-rule="evenodd" clip-rule="evenodd" d="M10.459 25.8236C10.5455 25.7895 10.6295 25.749 10.7105 25.7026L22.2471 19.1449L19.512 16.3088L10.459 25.8236ZM22.7577 18.8551L19.9045 15.8964L22.7548 12.9008L26.6801 15.1242C27.6472 15.6716 27.1525 16.3569 26.6801 16.6255L22.7577 18.8551ZM22.2444 12.6119L10.7105 6.07694C10.5852 6.00788 10.4487 5.96331 10.3079 5.94543L19.5093 15.4866L22.2448 12.6118L22.2444 12.6119ZM9.63148 6.06325L19.1168 15.8989L9.67702 25.8196C9.40153 25.6382 9.25385 25.2449 9.25135 24.7357C9.24661 23.761 9.17158 8.28782 9.16592 7.12662C9.16316 6.57065 9.35823 6.23101 9.63148 6.06325Z" fill="#0F2852"/>
    </g>
  </g>
  <defs>
    <clipPath id="clip0_295_207">
      <rect width="105.605" height="31.0602" fill="white" transform="translate(0.523438 0.356079)"/>
    </clipPath>
  </defs>
</svg>