<svg width="59" height="63" viewBox="0 0 59 63" fill="none" xmlns="http://www.w3.org/2000/svg">
<path d="M27.8517 37.4438H23.7068V41.6637H27.8517V37.4438Z" fill="#306FD5"/>
<path d="M33.8329 37.4438H29.6656V41.6637H33.8329V37.4438Z" fill="#306FD5"/>
<path d="M28.7212 5.00397C21.3832 5.00397 15.1471 7.61235 9.96033 12.7991C4.76607 17.9859 2.16517 24.2295 2.16517 31.5375C2.16517 35.7798 3.03466 39.6924 4.82605 43.1927V43.2976C4.82605 43.2976 4.80354 43.3501 4.80354 43.425L1.83542 46.3632L5.44063 49.9685L28.6762 26.7329L52.0166 50.0509L55.7268 46.3707L53.3508 43.9947L52.7587 43.4325C52.7062 43.3801 52.7062 43.3276 52.6837 43.3276V43.3051C52.6837 43.3051 52.7062 43.2302 52.7062 43.2002C54.4452 39.6474 55.3146 35.7648 55.3146 31.5449C55.3146 24.2295 52.7062 17.9934 47.5419 12.8066C42.3477 7.61984 36.0666 5.01147 28.7287 5.01147L28.7212 5.00397ZM9.03842 39.1302C9.01594 39.1827 8.96346 39.1827 8.93348 39.1827H8.83603C8.78357 39.1302 8.7611 39.0778 8.7611 39.0778C7.89164 36.7242 7.43441 34.2208 7.43441 31.5375C7.43441 25.6611 9.53311 20.6467 13.723 16.5018C17.8379 12.3119 22.8523 10.2432 28.7287 10.2432C34.605 10.2432 39.6718 12.3119 43.8392 16.5018C47.9766 20.6467 50.0229 25.6536 50.0229 31.5375C50.0229 34.1683 49.6407 36.6493 48.8761 38.9503C48.8462 38.9728 48.8236 39.0253 48.8236 39.0778L48.7187 39.3326L44.8586 35.495V26.9278H39.7468V30.3757L28.8036 19.41L9.03842 39.1227V39.1302Z" fill="#306FD5"/>
<path d="M44.4689 45.9585C44.3415 46.0859 44.214 46.1908 44.109 46.3182L44.0791 46.3407C42.4676 47.9222 40.8861 49.1815 39.3495 50.0509C36.2015 51.8123 32.7011 52.7118 28.841 52.7118C24.981 52.7118 21.5331 51.8198 18.4375 50.0509C16.8035 49.1065 15.2671 47.9297 13.8355 46.5206C13.783 46.4682 13.7305 46.4157 13.708 46.3707C13.4757 46.1683 13.2957 45.9585 13.1159 45.7786L9.4057 49.4888C9.5631 49.6911 9.73547 49.8485 9.94534 50.0509C9.99781 50.1034 10.0428 50.1559 10.1252 50.2008C15.2895 55.3876 21.5256 57.996 28.841 57.996C36.1565 57.996 42.4377 55.3876 47.6544 50.2008C47.7069 50.1484 47.7593 50.0959 47.7818 50.0509C47.8867 49.946 47.9842 49.8186 48.0891 49.6911L44.4614 45.9585H44.4689Z" fill="#306FD5"/>
<path d="M33.8329 47.6974V43.4775H29.6656V47.6974H33.8329Z" fill="#306FD5"/>
<path d="M27.8517 47.6974V43.4775H23.7068V47.6974H27.8517Z" fill="#306FD5"/>
</svg>
